<svg width="578" height="578" xmlns="http://www.w3.org/2000/svg" xmlns:xlink="http://www.w3.org/1999/xlink" overflow="hidden"><defs><clipPath id="clip0"><path d="M351 71 929 71 929 649 351 649Z" fill-rule="evenodd" clip-rule="evenodd"/></clipPath></defs><g clip-path="url(#clip0)" transform="translate(-351 -71)"><path d="M352.5 360.5C352.5 201.442 481.442 72.5001 640.5 72.5001 799.558 72.5001 928.5 201.442 928.5 360.5 928.5 519.558 799.558 648.5 640.5 648.5 481.442 648.5 352.5 519.558 352.5 360.5Z" stroke="#2F528F" stroke-width="1.33333" stroke-miterlimit="8" fill="#4472C4" fill-rule="evenodd"/><path d="M688.5 162.5C688.5 135.99 709.99 114.5 736.5 114.5 763.01 114.5 784.5 135.99 784.5 162.5 784.5 189.01 763.01 210.5 736.5 210.5 709.99 210.5 688.5 189.01 688.5 162.5Z" stroke="#2F528F" stroke-width="1.33333" stroke-miterlimit="8" fill="#389826" fill-rule="evenodd"/><path d="M352.5 354.5C352.5 274.971 416.971 210.5 496.5 210.5 576.029 210.5 640.5 274.971 640.5 354.5 640.5 434.029 576.029 498.5 496.5 498.5 416.971 498.5 352.5 434.029 352.5 354.5Z" stroke="#2F528F" stroke-width="1.33333" stroke-miterlimit="8" fill="#9558B2" fill-rule="evenodd"/><path d="M736.5 354.5C736.5 301.481 779.481 258.5 832.5 258.5 885.519 258.5 928.5 301.481 928.5 354.5 928.5 407.519 885.519 450.5 832.5 450.5 779.481 450.5 736.5 407.519 736.5 354.5Z" stroke="#2F528F" stroke-width="1.33333" stroke-miterlimit="8" fill="#CB3C33" fill-rule="evenodd"/></g></svg>
