<svg width="412" height="412" xmlns="http://www.w3.org/2000/svg" xmlns:xlink="http://www.w3.org/1999/xlink" overflow="hidden"><defs><clipPath id="clip0"><path d="M856 154 1268 154 1268 566 856 566Z" fill-rule="evenodd" clip-rule="evenodd"/></clipPath></defs><g clip-path="url(#clip0)" transform="translate(-856 -154)"><path d="M895.286 243.266C959.757 151.192 1086.66 128.816 1178.73 193.286 1270.81 257.757 1293.18 384.661 1228.71 476.734 1164.24 568.808 1037.34 591.184 945.266 526.714 853.192 462.243 830.816 335.339 895.286 243.266Z" stroke="#000000" stroke-width="3" stroke-miterlimit="8" fill="#4472C4" fill-rule="evenodd"/><path d="M914.382 351.564C954.22 294.67 1032.64 280.843 1089.53 320.681 1146.43 360.519 1160.25 438.936 1120.42 495.83 1080.58 552.725 1002.16 566.552 945.266 526.714 888.371 486.876 874.544 408.459 914.382 351.564Z" stroke="#000000" stroke-width="3" stroke-miterlimit="8" fill="#9558B2" fill-rule="evenodd"/><path d="M1070.44 212.382C1095.07 177.203 1143.56 168.654 1178.73 193.286 1213.91 217.919 1222.46 266.406 1197.83 301.585 1173.2 336.764 1124.71 345.313 1089.53 320.681 1054.35 296.048 1045.8 247.561 1070.44 212.382Z" stroke="#000000" stroke-width="3" stroke-miterlimit="8" fill="#CB3C33" fill-rule="evenodd"/><path d="M1144.11 344.558C1159.32 322.842 1189.25 317.565 1210.96 332.77 1232.68 347.975 1237.96 377.905 1222.75 399.621 1207.55 421.336 1177.62 426.614 1155.9 411.409 1134.19 396.203 1128.91 366.273 1144.11 344.558Z" stroke="#000000" stroke-width="3" stroke-miterlimit="8" fill="#389826" fill-rule="evenodd"/></g></svg>